# File created by Blade
# Date/Time:  Wed Apr 08 14:47:28 2015
#---------------------------------------------------------
:version 1.10
:name HOM
:units
  mass 1.0
  length 1.000000
  angle deg
:documentation
     Acclaim Skeleton File
:root
   axis xyz
   order TX TY TZ RX RY RZ
   position 0.000000 0.000000 0.000000
   orientation 0 0 0
:bonedata
   begin
      id 1
      name Spine_dum
      direction 0.000000 1.000000 0.000000
      length 4.885285
      axis 0.0 0.0 0.0 xyz
   end
   begin
      id 2
      name LeftUpLeg_dum
      direction 1.000000 0.000000 0.000000
      length 2.672193
      axis 0.0 0.0 0.0 xyz
   end
   begin
      id 3
      name RightUpLeg_dum
      direction -1.000000 0.000000 0.000000
      length 2.672193
      axis 0.0 0.0 0.0 xyz
   end
   begin
      id 4
      name Spine
      direction 0.000000 1.000000 0.000000
      length 0.000000
      axis 0.0 0.0 0.0 xyz
      dof rx ry rz
   end
   begin
      id 5
      name Spine_dum1
      direction 0.000000 1.000000 0.000000
      length 16.494159
      axis 0.0 0.0 0.0 xyz
   end
   begin
      id 6
      name Spine_dum2
      direction 0.000000 1.000000 0.000000
      length 10.663448
      axis 0.0 0.0 0.0 xyz
   end
   begin
      id 7
      name Spine_dum3
      direction 0.000000 1.000000 0.000000
      length 10.663448
      axis 0.0 0.0 0.0 xyz
   end
   begin
      id 8
      name Head
      direction 0.000000 1.000000 0.000000
      length 4.527550
      axis 0.0 0.0 0.0 xyz
      dof rx ry rz
   end
   begin
      id 9
      name LeftShoulder
      direction 1.000000 0.000000 0.000000
      length 7.531907
      axis 0.0 0.0 -90.0 xyz
      dof rx ry rz
   end
   begin
      id 10
      name LeftArm
      direction 1.000000 0.000000 0.000000
      length 10.229199
      axis 0.0 0.0 -90.0 xyz
      dof rx ry rz
   end
   begin
      id 11
      name LeftForeArm
      direction 1.000000 0.000000 0.000000
      length 8.673495
      axis 0.0 0.0 -90.0 xyz
      dof ry rz rx
   end
   begin
      id 12
      name LeftHand
      direction 0.000000 0.000000 0.000000
      length 0.000000
      axis 0.0 0.0 -90.0 xyz
      dof rx ry rz
   end
   begin
      id 13
      name LeftHand_dum1
      direction 0.000000 0.000000 0.000000
      length 0.000000
      axis 0.0 0.0 -90.0 xyz
   end
   begin
      id 14
      name LeftHand_dum2
      direction 1.000000 0.000000 0.000000
      length 3.937000
      axis 0.0 0.0 -90.0 xyz
   end
   begin
      id 15
      name LeftHandThumb1
      direction 0.000000 0.000000 1.000000
      length 3.937000
      axis 0.0 0.0 -90.0 xyz
      dof rx rz ry
   end
   begin
      id 16
      name RightShoulder
      direction -1.000000 0.000000 0.000000
      length 7.531907
      axis 0.0 0.0 90.0 xyz
      dof rx ry rz
   end
   begin
      id 17
      name RightArm
      direction -1.000000 0.000000 0.000000
      length 10.229199
      axis 0.0 0.0 90.0 xyz
      dof rx ry rz
   end
   begin
      id 18
      name RightForeArm
      direction -1.000000 0.000000 0.000000
      length 8.673495
      axis 0.0 0.0 90.0 xyz
      dof ry rz rx
   end
   begin
      id 19
      name RightHand
      direction 0.000000 0.000000 0.000000
      length 0.000000
      axis 0.0 0.0 90.0 xyz
      dof rx ry rz
   end
   begin
      id 20
      name RightHand_dum1
      direction 0.000000 0.000000 0.000000
      length 0.000000
      axis 0.0 0.0 90.0 xyz
   end
   begin
      id 21
      name RightHand_dum2
      direction -1.000000 0.000000 0.000000
      length 3.937000
      axis 0.0 0.0 90.0 xyz
   end
   begin
      id 22
      name RightHandThumb1
      direction 0.000000 0.000000 1.000000
      length 3.937000
      axis 0.0 0.0 90.0 xyz
      dof rx rz ry
   end
   begin
      id 23
      name LeftUpLeg
      direction 0.000000 -1.000000 0.000000
      length 16.263388
      axis 0.0 0.0 0.0 xyz
      dof rx ry rz
   end
   begin
      id 24
      name LeftLeg
      direction 0.000000 -1.000000 0.000000
      length 14.328163
      axis 0.0 0.0 0.0 xyz
      dof rx ry rz
   end
   begin
      id 25
      name LeftFoot
      direction 0.000000 -0.258819 0.965926
      length 5.031290
      axis 15.0 0.0 0.0 xyz
      dof rx ry rz
   end
   begin
      id 26
      name LeftToeBase
      direction 0.000000 0.000000 1.000000
      length 2.952750
      axis 0.0 0.0 0.0 xyz
      dof rx ry rz
   end
   begin
      id 27
      name RightUpLeg
      direction 0.000000 -1.000000 0.000000
      length 16.263388
      axis 0.0 0.0 0.0 xyz
      dof rx ry rz
   end
   begin
      id 28
      name RightLeg
      direction 0.000000 -1.000000 0.000000
      length 14.328163
      axis 0.0 0.0 0.0 xyz
      dof rx ry rz
   end
   begin
      id 29
      name RightFoot
      direction 0.000000 -0.258819 0.965926
      length 5.031290
      axis 15.0 0.0 0.0 xyz
      dof rx ry rz
   end
   begin
      id 30
      name RightToeBase
      direction 0.000000 0.000000 1.000000
      length 2.952750
      axis 0.0 0.0 0.0 xyz
      dof rx ry rz
   end
:hierarchy
   begin
      root Spine_dum LeftUpLeg_dum RightUpLeg_dum
      Spine_dum Spine
      LeftUpLeg_dum LeftUpLeg
      RightUpLeg_dum RightUpLeg
      Spine Spine_dum1 Spine_dum2 Spine_dum3
      Spine_dum1 Head
      Spine_dum2 LeftShoulder
      Spine_dum3 RightShoulder
      LeftShoulder LeftArm
      LeftArm LeftForeArm
      LeftForeArm LeftHand
      LeftHand LeftHand_dum1 LeftHand_dum2
      LeftHand_dum1 LeftHandThumb1
      RightShoulder RightArm
      RightArm RightForeArm
      RightForeArm RightHand
      RightHand RightHand_dum1 RightHand_dum2
      RightHand_dum1 RightHandThumb1
      LeftUpLeg LeftLeg
      LeftLeg LeftFoot
      LeftFoot LeftToeBase
      RightUpLeg RightLeg
      RightLeg RightFoot
      RightFoot RightToeBase
   end

# File created by Blade
# Date/Time:  Wed Apr 08 14:47:20 2015
# Frame Rate: 120.000 fps
#------------------------------------------------------
:FULLY-SPECIFIED
:DEGREES
141
root -2.166475 32.613927 -15.295827 16.510403 0.335568 0.159483
Spine -12.884811 -3.310059 -1.085544
Head 6.485821 -4.841145 1.066548
LeftShoulder -24.476702 49.334207 1.410973
LeftArm 44.836566 1.100085 -85.791043
LeftForeArm 12.172228 -0.000000 75.521018
LeftHand 5.262326 -0.000000 -5.044968
LeftHandThumb1 -26.253704 0.000000 33.147579
RightShoulder -8.700122 -12.439502 -18.155096
RightArm 5.605151 5.540382 77.572434
RightForeArm -16.378007 -0.000000 72.763373
RightHand 6.825529 0.000000 -1.168757
RightHandThumb1 -24.326973 -0.000000 -32.862282
LeftUpLeg -28.141211 -8.151124 5.890101
LeftLeg 20.396507 -0.000000 -0.000000
LeftFoot -10.767911 14.393295 -18.898110
LeftToeBase -7.509543 -0.000000 0.000000
RightUpLeg -5.248602 -0.584739 3.475151
RightLeg -3.065654 -0.000000 0.000000
RightFoot -11.016265 -15.304053 10.016380
RightToeBase -2.002870 -0.000000 0.000000
142
root -2.198553 32.599023 -15.334222 16.479796 0.555228 0.050270
Spine -12.724553 -3.440501 -0.829628
Head 6.373343 -4.867446 0.931870
LeftShoulder -24.449917 49.295234 1.322481
LeftArm 45.061867 1.664490 -85.284819
LeftForeArm 12.612161 -0.000000 75.836203
LeftHand 5.198804 -0.000000 -5.259157
LeftHandThumb1 -26.253704 0.000000 33.147579
RightShoulder -8.708290 -12.593647 -18.208793
RightArm 5.537269 5.173555 77.723796
RightForeArm -16.298327 0.000000 73.169253
RightHand 6.863261 -0.000000 -0.968132
RightHandThumb1 -24.326973 -0.000000 -32.862282
LeftUpLeg -28.933394 -8.479747 6.196366
LeftLeg 21.775012 -0.000000 -0.000000
LeftFoot -11.148483 14.323942 -19.369311
LeftToeBase -7.202167 -0.000000 0.000000
RightUpLeg -5.100486 -0.723159 3.672923
RightLeg -3.414052 -0.000000 0.000000
RightFoot -10.945862 -15.239970 10.102695
RightToeBase -1.832765 -0.000000 0.000000
143
root -2.236750 32.584651 -15.372617 16.443676 0.641084 -0.092369
Spine -12.554945 -3.465248 -0.618752
Head 6.258666 -4.868148 0.875725
LeftShoulder -24.395306 49.212835 1.326332
LeftArm 45.258617 2.176834 -84.784100
LeftForeArm 13.054170 -0.000000 76.095911
LeftHand 5.278185 0.000000 -5.511566
LeftHandThumb1 -26.253704 0.000000 33.147579
RightShoulder -8.667182 -12.762885 -18.241586
RightArm 5.499096 5.033872 78.052841
RightForeArm -16.312460 -0.000000 73.573718
RightHand 6.877298 0.000000 -0.598690
RightHandThumb1 -24.326973 -0.000000 -32.862282
LeftUpLeg -29.684963 -8.617968 6.499028
LeftLeg 23.120549 -0.000000 -0.000000
LeftFoot -11.506581 14.109264 -19.812262
LeftToeBase -6.861956 -0.000000 0.000000
RightUpLeg -4.978522 -0.727231 3.885379
RightLeg -3.706294 -0.000000 0.000000
RightFoot -10.859385 -15.222061 10.158403
RightToeBase -1.779008 -0.000000 0.000000
144
root -2.272800 32.570039 -15.404000 16.393452 0.698545 -0.220757
Spine -12.389682 -3.450216 -0.438847
Head 6.179991 -4.872096 0.834386
LeftShoulder -24.296104 49.127677 1.371627
LeftArm 45.433645 2.677535 -84.233473
LeftForeArm 13.415262 -0.000000 76.401770
LeftHand 5.231937 -0.000000 -5.503674
LeftHandThumb1 -26.253704 0.000000 33.147579
RightShoulder -8.658865 -12.956721 -18.242494
RightArm 5.485902 4.871142 78.326208
RightForeArm -16.326788 -0.000000 73.943333
RightHand 6.826721 -0.000000 -0.681689
RightHandThumb1 -24.326973 -0.000000 -32.862282
LeftUpLeg -30.392450 -8.687569 6.722352
LeftLeg 24.394295 -0.000000 -0.000000
LeftFoot -11.803782 14.066135 -20.008533
LeftToeBase -6.401642 -0.000000 0.000000
RightUpLeg -4.803702 -0.638706 4.060591
RightLeg -4.041687 -0.000000 0.000000
RightFoot -10.754924 -15.237191 10.154375
RightToeBase -1.691406 -0.000000 0.000000
145
root -2.306916 32.556450 -15.428292 16.341972 0.741500 -0.318718
Spine -12.236181 -3.483054 -0.292232
Head 6.113809 -4.809267 0.799765
LeftShoulder -24.330663 49.094945 1.327315
LeftArm 45.665770 3.139099 -83.676015
LeftForeArm 13.830030 0.000000 76.667428
LeftHand 5.312118 -0.000000 -5.507441
LeftHandThumb1 -26.253704 0.000000 33.147579
RightShoulder -8.602348 -13.081729 -18.253726
RightArm 5.403049 4.690029 78.589516
RightForeArm -16.337497 -0.000000 74.297809
RightHand 6.768439 -0.000000 -0.940958
RightHandThumb1 -24.326973 -0.000000 -32.862282
LeftUpLeg -31.060822 -8.709426 6.905212
LeftLeg 25.586253 -0.000000 -0.000000
LeftFoot -12.068052 13.937525 -20.101643
LeftToeBase -5.770917 -0.000000 0.000000
RightUpLeg -4.686691 -0.709712 4.219186
RightLeg -4.242338 -0.000000 0.000000
RightFoot -10.735191 -15.099942 10.225960
RightToeBase -1.658410 -0.000000 0.000000
